<?xml version="1.0" encoding="UTF-8" standalone="no"?>
<!-- Generator: Adobe Illustrator 16.1.0, SVG Export Plug-In . SVG Version: 6.00 Build 0)  -->

<svg
   xmlns:dc="http://purl.org/dc/elements/1.1/"
   xmlns:cc="http://creativecommons.org/ns#"
   xmlns:rdf="http://www.w3.org/1999/02/22-rdf-syntax-ns#"
   xmlns:svg="http://www.w3.org/2000/svg"
   xmlns="http://www.w3.org/2000/svg"
   xmlns:sodipodi="http://sodipodi.sourceforge.net/DTD/sodipodi-0.dtd"
   xmlns:inkscape="http://www.inkscape.org/namespaces/inkscape"
   version="1.1"
   id="Layer_1"
   x="0px"
   y="0px"
   width="512"
   height="512"
   viewBox="0 0 511.99999 511.99999"
   enable-background="new 0 0 421.661 423.264"
   xml:space="preserve"
   inkscape:version="0.48.5 r10040"
   sodipodi:docname="logo.svg"
   inkscape:export-filename="/Users/rougier/Development/Public/ReScience/ReScience.github.io/images/favicon-16x16.png"
   inkscape:export-xdpi="2.8099999"
   inkscape:export-ydpi="2.8099999"><metadata
     id="metadata42"><rdf:RDF><cc:Work
         rdf:about=""><dc:format>image/svg+xml</dc:format><dc:type
           rdf:resource="http://purl.org/dc/dcmitype/StillImage" /><dc:title></dc:title></cc:Work></rdf:RDF></metadata><defs
     id="defs40" /><sodipodi:namedview
     pagecolor="#ffffff"
     bordercolor="#666666"
     borderopacity="1"
     objecttolerance="10"
     gridtolerance="10"
     guidetolerance="10"
     inkscape:pageopacity="0"
     inkscape:pageshadow="2"
     inkscape:window-width="1085"
     inkscape:window-height="930"
     id="namedview38"
     showgrid="false"
     inkscape:zoom="1.4511719"
     inkscape:cx="256"
     inkscape:cy="256"
     inkscape:window-x="322"
     inkscape:window-y="21"
     inkscape:window-maximized="0"
     inkscape:current-layer="Layer_1" /><g
     id="g3820"
     transform="matrix(1.2049296,0,0,1.2049296,1.9648769,0.9991456)"
     style="fill:#ce232b;fill-opacity:1"><path
       style="fill:#ce232b;fill-opacity:1;fill-rule:evenodd"
       inkscape:connector-curvature="0"
       id="path6"
       d="m 281.898,342.482 c 8.448,-6.854 17.564,-13.042 25.201,-20.704 13.698,-13.744 25.378,-29.383 32.358,-47.558 5.017,-13.061 7.601,-27.062 11.083,-40.692 0.194,-0.761 2.344,-4.336 -1.882,-3.039 0.243,-1.681 -0.09,-3.841 0.837,-4.95 2.855,-3.42 2.883,-8.321 -0.412,-11.496 -0.44,-0.426 -0.853,-1.092 -0.902,-1.678 -0.516,-6.138 -0.99,-12.281 -1.354,-18.431 -0.031,-0.54 0.811,-1.131 1.246,-1.698 0.419,0.62 1.167,1.221 1.203,1.863 0.264,4.592 0.325,9.196 0.598,13.788 0.052,0.875 0.755,1.713 1.157,2.566 0.189,-0.858 0.584,-1.729 0.54,-2.576 -1.027,-19.72 -4.217,-39.022 -11.972,-57.31 -4.12,-9.715 -7.969,-19.676 -13.332,-28.698 -6.087,-10.238 -13.806,-19.597 -23.59,-26.662 -21.449,-15.488 -45.3,-25.013 -71.948,-25.573 -18.405,-0.387 -36.46,2.285 -53.315,10.664 -9.031,4.489 -18.418,8.255 -27.547,12.554 -2.325,1.095 -4.184,3.142 -6.44,4.433 -1.351,0.773 -3.054,0.931 -4.602,1.358 -0.421,0.116 -0.993,0.065 -1.253,0.329 -6.87,6.952 -13.819,13.83 -20.51,20.951 -4.491,4.779 -8.708,9.829 -12.831,14.933 -1.318,1.633 -2.037,3.788 -2.866,5.772 -2.837,6.789 -5.724,13.562 -8.352,20.433 -1.883,4.923 -3.313,10.017 -5.117,14.972 -0.325,0.894 -1.482,1.484 -2.255,2.214 0.128,-1.301 0.084,-2.65 0.428,-3.892 0.422,-1.525 1.532,-2.917 1.716,-4.443 1.415,-11.707 5.276,-22.664 11.178,-32.708 11.668,-19.857 27.207,-36.078 47.281,-47.702 8.309,0.226 13.93,-5.874 20.795,-8.999 6.721,-3.059 12.887,-7.336 19.599,-10.42 4.774,-2.193 10.057,-3.271 15.093,-4.906 0.713,-0.231 1.317,-0.799 1.972,-1.211 -0.828,-0.279 -1.777,-0.974 -2.465,-0.772 -6.074,1.777 -12.059,3.867 -18.16,5.534 -2.826,0.772 -5.853,0.813 -8.789,1.186 -0.127,-1.385 -0.389,-2.776 -0.332,-4.153 0.037,-0.887 0.54,-1.755 0.834,-2.631 -0.949,0.104 -2.022,-0.044 -2.827,0.353 -6.311,3.117 -13.869,3.457 -19.257,8.69 -0.623,0.604 -1.966,0.467 -2.975,0.673 0.666,-0.863 1.169,-1.961 2.023,-2.552 8.162,-5.641 16.578,-10.745 26.467,-12.933 1.662,-0.368 3.07,-1.879 4.596,-2.862 -1.704,0.476 -3.493,0.763 -5.091,1.476 -2.001,0.893 -4.211,2.488 -5.102,-0.725 -0.278,-1.002 1.712,-2.714 2.809,-3.975 0.387,-0.444 1.249,-0.44 1.817,-0.771 0.678,-0.395 1.275,-0.929 1.907,-1.403 -0.771,0.02 -1.621,-0.167 -2.303,0.09 -5.881,2.215 -11.915,4.135 -17.549,6.871 -8.199,3.982 -16.662,7.801 -23.981,13.11 -7.712,5.595 -14.252,12.818 -21.223,19.416 -3.141,2.973 -6.104,6.136 -9.093,9.264 -0.387,0.404 -0.448,1.119 -0.66,1.69 0.498,-0.248 1.087,-0.397 1.48,-0.76 4.275,-3.943 8.423,-8.033 12.854,-11.792 0.897,-0.761 1.586,-5.375 4.108,-1.122 0.511,-0.346 1.1,-0.617 1.515,-1.054 0.735,-0.774 1.364,-1.648 2.037,-2.481 -0.176,1.221 -0.217,2.482 -0.571,3.649 -0.283,0.931 -0.962,1.738 -1.438,2.615 -0.521,0.96 -1.012,1.937 -1.517,2.907 0.944,-0.163 1.886,-0.437 2.832,-0.454 0.72,-0.013 1.447,0.302 2.17,0.471 -0.267,0.73 -0.396,1.557 -0.825,2.176 -2.234,3.22 -4.338,6.569 -6.92,9.491 -1.176,1.331 -3.887,1.35 -4.976,2.706 -4.187,5.214 -8.299,10.539 -11.868,16.183 -3.704,5.86 -6.724,12.151 -10.111,18.216 -0.353,0.632 -1.536,1.543 -1.713,1.421 -4.963,-3.411 -4.198,1.969 -5.284,3.687 -2.214,3.501 -3.826,7.378 -5.772,11.056 -0.364,0.688 -1.72,1.307 -1.621,1.716 1.698,7.028 -4.497,12.076 -4.582,18.585 -0.064,4.923 -0.79,9.92 2.145,14.505 0.933,1.458 1.161,3.517 1.273,5.328 0.797,12.812 -0.089,25.818 4.637,38.157 0.352,0.918 0.674,1.914 0.682,2.877 0.006,0.73 -0.51,1.465 -0.794,2.197 -0.581,-0.594 -1.513,-1.101 -1.686,-1.797 -1.403,-5.627 -2.598,-11.306 -4.018,-16.928 -0.309,-1.224 -1.269,-2.283 -1.928,-3.418 -0.043,1.269 -0.285,2.567 -0.099,3.801 2.139,14.193 4.982,28.193 12.813,40.568 2.124,3.357 4.765,6.383 7.087,9.619 2.528,3.522 4.986,7.097 7.405,10.695 0.313,0.467 0.213,1.211 0.305,1.827 -0.576,-0.201 -1.172,-0.358 -1.724,-0.61 -2.115,-0.969 -4.203,-1.998 -6.335,-2.926 -0.346,-0.15 -0.864,0.097 -1.303,0.16 0.298,0.582 0.469,1.295 0.914,1.729 5.446,5.307 10.93,10.575 16.415,15.843 0.234,0.225 0.609,0.301 0.848,0.522 2.508,2.331 5.001,4.678 7.498,7.02 -2.752,-1.099 -5.416,-2.734 -8.272,-3.207 -14.76,-2.443 -20.083,-15.216 -28.076,-25.102 -0.706,-0.873 -1.812,-1.421 -2.732,-2.12 0.346,1.008 0.912,1.997 1.003,3.026 0.627,7.121 5.138,11.918 9.748,16.694 0.337,0.349 0.236,1.121 0.338,1.696 -0.704,-0.275 -1.668,-0.345 -2.072,-0.857 -4.204,-5.336 -8.406,-10.678 -12.422,-16.154 -2.292,-3.126 -4.234,-6.508 -6.358,-9.76 -0.161,-0.246 -0.515,-0.365 -0.779,-0.543 -0.146,0.576 -0.537,1.223 -0.398,1.721 1.026,3.656 1.808,7.441 3.354,10.877 1.593,3.539 3.917,6.758 6.028,10.048 0.494,0.771 1.731,3.211 1.804,-0.271 0.632,0.055 1.66,-0.11 1.831,0.199 1.124,2.033 1.8,4.352 3.113,6.236 3.872,5.56 7.192,11.9 12.254,16.095 3.423,2.837 6.711,6.549 12.098,7.736 5.754,1.27 10.871,5.394 16.305,8.194 0.917,0.474 2.033,0.562 3.057,0.827 -0.71,-0.666 -1.397,-1.361 -2.139,-1.989 -0.634,-0.536 -1.413,-0.92 -1.976,-1.514 -0.424,-0.447 -0.609,-1.121 -0.9,-1.693 0.727,0.004 1.591,-0.25 2.16,0.052 6.952,3.687 14.284,6.293 21.979,7.882 0.689,0.143 1.816,0.223 2.12,-0.159 1.831,-2.306 1.683,-2.13 4.369,-1.081 3.062,1.196 6.242,2.323 9.471,2.812 11.473,1.733 18.403,9.705 24.177,18.415 3.192,4.816 8.423,8.907 8.593,15.335 0.103,3.909 0.372,8.429 -1.344,11.66 -5.946,11.198 -12.166,22.568 -26.474,25.085 -1.365,0.24 -2.834,-0.135 -4.21,0.071 -2.45,0.368 -4.936,0.745 -7.284,1.501 -9.292,2.99 -18.959,4.038 -27.693,-0.245 -10.234,-5.02 -20.362,-10.822 -29.259,-17.892 C 77.998,372.26 57.296,353.705 39.362,332.534 23.28,313.55 12.324,291.415 5.521,267.46 3.135,259.06 1.793,250.272 0.89,241.567 -0.018,232.811 0.174,223.937 0,215.112 c -0.018,-0.929 0.753,-1.873 1.158,-2.811 0.298,0.994 0.717,1.971 0.875,2.987 2.485,15.888 4.814,31.802 7.515,47.652 0.455,2.671 2.482,5.075 3.783,7.603 -0.322,-2.688 -0.407,-5.431 -1.011,-8.055 -2.191,-9.515 -6.13,-18.928 -6.505,-28.494 -0.642,-16.357 0.353,-32.849 1.767,-49.189 0.731,-8.453 3.254,-16.897 5.997,-24.998 5.22,-15.417 11.155,-30.594 16.893,-45.833 0.314,-0.835 1.533,-1.329 2.331,-1.981 0.008,0.923 0.157,1.872 -0.004,2.764 -0.327,1.804 -0.821,3.578 -1.247,5.365 1,-1.705 1.929,-3.457 3.021,-5.101 1.023,-1.542 2.217,-2.969 3.336,-4.447 -0.158,1.927 0.016,3.958 -0.55,5.756 -0.894,2.842 -2.346,5.505 -3.434,8.293 -0.466,1.195 -0.818,2.513 -0.836,3.78 -0.013,0.912 0.613,1.833 0.955,2.751 0.566,-0.692 1.22,-1.331 1.676,-2.088 0.686,-1.138 1.2,-2.377 1.848,-3.54 0.619,-1.11 1.315,-2.178 1.978,-3.265 0.264,1.079 0.49,2.169 0.81,3.232 0.113,0.376 0.634,0.994 0.667,0.976 0.676,-0.389 1.306,-0.856 1.949,-1.301 1.133,-0.782 2.271,-1.56 3.406,-2.339 -0.215,1.396 -0.221,2.866 -0.678,4.178 -4.212,12.091 -8.599,24.123 -12.697,36.251 -0.938,2.776 -0.983,5.858 -1.378,8.808 -0.047,0.353 0.291,0.757 0.45,1.138 0.285,-0.354 0.693,-0.665 0.836,-1.07 1.227,-3.45 2.313,-6.952 3.614,-10.372 4.24,-11.145 8.553,-22.262 12.839,-33.389 0.12,-0.311 0.193,-0.681 0.41,-0.905 0.846,-0.876 1.741,-1.705 2.618,-2.551 -0.251,1.071 -0.303,2.245 -0.79,3.196 -1.667,3.26 -3.532,6.417 -5.206,9.674 -0.312,0.608 -0.09,1.492 -0.114,2.249 0.43,-0.432 0.881,-0.845 1.285,-1.301 0.788,-0.891 1.548,-1.806 2.319,-2.71 0.117,1.385 0.641,2.891 0.274,4.133 -1.082,3.653 -2.533,7.195 -3.792,10.797 -0.153,0.438 -0.014,0.979 -0.009,1.473 0.292,-0.204 0.685,-0.343 0.859,-0.62 3.244,-5.144 6.502,-10.278 9.638,-15.487 0.441,-0.733 3.045,-2.737 -0.739,-2.431 0.908,-2.017 1.478,-4.305 2.815,-5.978 1.441,-1.803 3.938,-2.76 5.389,-4.558 5.442,-6.739 10.65,-13.666 15.935,-20.532 1.811,-2.354 3.522,-4.787 5.39,-7.095 8.899,-10.995 20.572,-18.979 31.626,-27.367 7.729,-5.865 17.545,-9.079 26.614,-13.054 9.883,-4.331 20.06,-7.992 29.935,-12.341 2.915,-1.284 5.182,-3.988 7.85,-5.896 1.903,-1.361 3.837,-3.116 6.004,-3.605 21.086,-4.769 42.008,-3.655 62.982,1.392 17.852,4.296 35.27,9.612 51.248,18.75 14.83,8.481 29.461,17.316 41.659,29.593 2.038,2.051 5.066,3.089 7.516,4.772 0.878,0.604 1.511,1.668 2.033,2.642 0.277,0.517 -0.194,1.563 0.143,1.899 1.812,1.805 3.772,3.462 5.683,5.17 -0.665,-1.903 -0.988,-4.03 -2.062,-5.665 -2.729,-4.157 -5.491,-8.362 -8.784,-12.064 -7.899,-8.882 -15.379,-18.263 -25.581,-24.76 -3.639,-2.318 -7.559,-4.195 -11.197,-6.513 -2.479,-1.58 -4.774,-3.483 -6.993,-5.423 -1.062,-0.928 -1.756,-2.276 -2.616,-3.434 1.456,0.586 3.001,1.015 4.352,1.787 4.563,2.607 8.656,5.972 14.505,5.912 1.602,-0.017 3.01,3.314 4.896,4.477 4.441,2.739 9.073,5.185 13.734,7.541 1.02,0.516 2.484,0.233 3.737,0.173 0.787,-0.038 1.561,-0.348 2.34,-0.536 -0.448,-0.642 -0.834,-1.341 -1.359,-1.912 -0.67,-0.729 -1.509,-1.304 -2.173,-2.038 -0.695,-0.769 -1.271,-1.646 -1.897,-2.477 1.749,0.11 5.003,0.078 5.028,0.351 0.645,6.817 7.834,5.134 11.265,8.392 1.304,1.237 2.921,2.365 4.247,4.066 2.848,3.654 6.362,6.779 9.439,10.265 11.735,13.291 21.53,27.929 28.692,44.126 4.96,11.215 10.172,22.568 13.031,34.401 3.89,16.092 5.82,32.674 8.23,49.099 1.103,7.515 2.3,15.226 1.748,22.722 -0.812,11.041 -3,21.996 -4.886,32.939 -1.349,7.823 -3.664,15.504 -4.646,23.361 -1.394,11.141 -5.647,20.878 -11.96,29.99 -1.213,1.752 -0.657,4.645 -1.655,6.642 -7.686,15.371 -17.744,28.994 -29.051,41.994 -4.885,5.616 -9.319,11.652 -14.971,16.588 -1.462,1.277 -3.361,2.062 -5.086,3.023 -0.993,0.555 -2.534,0.741 -2.983,1.558 -2.871,5.226 -7.367,8.128 -12.905,9.756 -0.61,0.18 -1.17,0.633 -1.677,1.052 -4.401,3.625 -8.78,7.277 -13.18,10.904 -0.634,0.522 -1.279,1.126 -2.026,1.403 -9.299,3.455 -18.515,7.181 -27.96,10.179 -9.289,2.948 -18.807,5.188 -28.255,7.613 -1.12,0.287 -2.442,-0.209 -3.671,-0.341 1.002,-0.645 1.924,-1.566 3.021,-1.891 14.797,-4.375 29.774,-8.249 43.551,-15.469 5.446,-2.854 10.771,-5.94 16.125,-8.966 0.498,-0.281 0.812,-0.888 1.212,-1.344 -0.576,0.101 -1.154,0.188 -1.728,0.305 -4.279,0.87 -7.688,2.857 -11.371,5.525 -5.588,4.045 -12.795,5.852 -19.314,8.61 -2.909,1.231 -5.785,2.555 -8.746,3.644 -0.784,0.287 -1.83,-0.14 -2.756,-0.238 0.631,-0.669 1.143,-1.563 1.911,-1.972 4.993,-2.648 10.173,-4.972 15.046,-7.818 8.686,-5.072 17.295,-10.292 25.738,-15.755 3.734,-2.416 7.004,-5.556 10.44,-8.419 0.59,-0.492 0.96,-1.248 1.431,-1.882 -0.714,0.179 -1.471,0.264 -2.13,0.563 -0.591,0.269 -1.033,0.857 -1.618,1.149 -0.537,0.268 -1.177,0.328 -1.771,0.48 0.225,-0.689 0.239,-1.629 0.71,-2.026 2.798,-2.354 5.835,-4.434 8.543,-6.881 6.04,-5.457 11.941,-11.068 17.874,-16.643 0.578,-0.543 0.985,-1.268 1.472,-1.908 -0.679,0.315 -1.461,0.506 -2.021,0.966 -5.426,4.466 -10.633,9.224 -16.289,13.37 -2.857,2.094 -4.688,8.074 -10.21,3.861 -0.292,-0.223 -2.022,1.396 -3.054,2.195 -13.064,10.12 -27.138,18.574 -42.179,25.407 -0.728,0.331 -1.729,0.059 -2.604,0.067 0.695,-0.638 1.302,-1.428 2.099,-1.888 8.219,-4.741 16.509,-9.358 24.67,-14.193 1.516,-0.897 2.547,-2.611 3.802,-3.948 -1.405,0.752 -2.788,1.55 -4.22,2.248 -11.337,5.532 -22.679,11.056 -34.041,16.535 -0.582,0.28 -1.371,0.129 -2.064,0.179 0.439,-0.443 0.805,-1.025 1.33,-1.307 3.358,-1.798 6.769,-3.499 10.122,-5.306 0.796,-0.428 1.439,-1.137 2.153,-1.717 -0.886,0.134 -1.844,0.093 -2.645,0.427 -8.426,3.512 -16.805,7.138 -25.26,10.576 -1.154,0.47 -2.653,0.091 -3.992,0.105 0.971,-0.693 1.924,-1.415 2.916,-2.075 4.131,-2.749 8.243,-5.527 12.42,-8.206 6.967,-4.47 14.057,-8.751 20.949,-13.332 7.476,-4.97 14.801,-10.167 22.137,-15.344 0.697,-0.491 0.997,-1.545 1.481,-2.338 -0.825,0.307 -1.743,0.473 -2.463,0.942 -6.662,4.347 -12.909,9.559 -20.036,12.897 -7.026,3.292 -14.929,4.719 -22.465,6.899 -0.477,0.139 -1.115,-0.28 -1.679,-0.439 0.331,-0.505 0.548,-1.206 1.015,-1.481 2.29,-1.35 4.763,-2.414 6.961,-3.892 9.486,-6.378 18.904,-12.857 28.33,-19.325 0.655,-0.45 1.168,-1.108 1.747,-1.67 -0.744,0.123 -1.588,0.062 -2.214,0.402 -2.037,1.105 -3.974,2.392 -5.984,3.546 -10.295,5.909 -20.589,11.82 -30.924,17.659 -0.919,0.52 -2.131,0.521 -3.206,0.764 0.608,-0.812 1.062,-1.847 1.852,-2.403 6.819,-4.803 13.717,-9.495 20.544,-14.288 0.964,-0.676 1.676,-1.712 2.504,-2.581 -1.277,0.147 -2.555,0.289 -3.83,0.445 -7.045,0.861 -11.627,5.883 -16.78,9.938 -1.619,1.273 -1.438,1.024 -3.053,-0.092 -0.649,-0.449 -2.25,0.55 -3.438,0.785 -1.305,0.259 -2.635,0.397 -3.953,0.589 0.952,-0.862 1.818,-1.854 2.871,-2.567 10.57,-7.163 21.18,-14.27 31.741,-21.445 0.54,-0.367 0.749,-1.221 1.113,-1.848 -0.601,0.199 -1.188,0.468 -1.805,0.586 -1.534,0.294 -3.082,0.521 -4.624,0.774 l -0.075,0.108 z M 232.063,40.869 c -3.608,0.319 -6.245,0.54 -8.879,0.793 -0.645,0.062 -1.279,0.231 -1.918,0.351 0.721,0.114 1.443,0.223 2.164,0.342 5.7,0.94 11.44,1.692 17.086,2.892 3.629,0.771 7.063,2.424 10.68,3.284 6.432,1.53 12.953,2.682 19.4,4.151 2.416,0.551 4.715,1.598 7.102,2.308 0.918,0.273 1.929,0.239 2.897,0.345 -0.726,-0.521 -1.391,-1.17 -2.187,-1.539 -3.167,-1.469 -6.373,-2.853 -9.569,-4.262 -12.02,-5.3 -24.751,-7.414 -36.776,-8.665 z M 59.965,143.351 c 1.262,-1.469 1.913,-2.007 2.285,-2.695 3.449,-6.372 6.691,-12.86 10.312,-19.131 3.333,-5.773 6.898,-11.429 10.67,-16.925 2.416,-3.52 5.408,-6.642 8.1,-9.977 0.379,-0.469 0.514,-1.135 0.762,-1.71 -0.635,0.333 -1.383,0.546 -1.89,1.017 -11.321,10.52 -19.102,23.677 -27.055,36.674 -1.706,2.788 -2.6,6.095 -3.683,9.227 -0.258,0.751 0.222,1.757 0.499,3.52 z M 323.655,81.27 c -0.316,-0.383 -0.59,-0.812 -0.955,-1.142 -4.417,-3.983 -8.519,-8.42 -13.353,-11.812 -6.761,-4.743 -14.035,-8.765 -21.19,-12.921 -0.859,-0.5 -2.346,0.079 -3.543,0.158 0.598,1.078 0.921,2.594 1.834,3.165 7.852,4.9 15.848,9.568 23.721,14.435 4.071,2.516 7.979,5.294 11.96,7.956 0.413,0.276 0.821,0.562 1.231,0.843 0.095,-0.224 0.19,-0.448 0.295,-0.682 z M 156.978,54.136 c -0.046,-0.755 -0.061,-1.007 -0.076,-1.258 -0.476,0.111 -1.007,0.121 -1.417,0.35 -1.869,1.042 -3.742,2.084 -5.536,3.246 -1.282,0.83 -2.441,1.848 -3.655,2.781 1.461,-0.636 2.946,-1.224 4.379,-1.919 2.178,-1.057 4.319,-2.188 6.305,-3.2 z m -62.832,61.798 c -0.138,-0.54 -0.21,-0.82 -0.283,-1.101 -0.35,0.31 -0.76,0.572 -1.039,0.936 -2.294,2.998 -4.573,6.009 -6.833,9.033 -0.286,0.382 -0.441,0.862 -0.657,1.296 0.281,0.061 0.74,0.262 0.817,0.163 2.72,-3.468 5.405,-6.964 7.995,-10.327 z"
       clip-rule="evenodd" /><path
       style="fill:#ce232b;fill-opacity:1;fill-rule:evenodd"
       inkscape:connector-curvature="0"
       id="path8"
       d="m 346.825,217.64 c -2.63,14.27 -5.275,28.535 -7.888,42.807 -3.681,20.108 -15.921,35.836 -27.059,52.019 -3.624,5.268 -9.001,9.347 -13.71,13.829 -0.622,0.593 -2.034,0.356 -3.08,0.504 0.461,-0.65 0.832,-1.393 1.395,-1.937 10.25,-9.919 18.622,-21.32 25.812,-33.548 4.283,-7.285 8.685,-14.701 11.514,-22.603 8.026,-22.414 10.316,-45.656 7.461,-69.308 -0.954,-7.904 -2.595,-15.726 -3.854,-23.595 -0.145,-0.906 0.143,-1.88 0.229,-2.823 0.483,0.763 1.172,1.466 1.412,2.298 0.78,2.695 0.953,5.652 2.154,8.122 4.22,8.672 1.364,18.283 3.933,27.153 0.636,2.196 0.552,4.601 0.8,6.909 0.293,0.06 0.587,0.116 0.881,0.173 z"
       clip-rule="evenodd" /><path
       style="fill:#ce232b;fill-opacity:1;fill-rule:evenodd"
       inkscape:connector-curvature="0"
       id="path10"
       d="m 131.236,36.199 c -0.772,0.513 -1.53,1.05 -2.32,1.534 -5.53,3.389 -11.312,6.427 -16.552,10.214 -12.677,9.16 -23.691,20.156 -34.153,31.757 -2.457,2.724 -5.878,4.582 -8.876,6.811 -0.379,0.283 -0.88,0.402 -1.325,0.597 0.05,-0.612 -0.122,-1.386 0.187,-1.812 2.045,-2.824 3.897,-5.875 6.362,-8.292 8.259,-8.099 16.467,-16.293 25.26,-23.787 4.881,-4.16 10.864,-7.037 16.394,-10.422 3.934,-2.409 7.91,-4.751 11.935,-7.002 0.786,-0.439 1.883,-0.321 2.836,-0.46 0.084,0.287 0.168,0.574 0.252,0.862 z"
       clip-rule="evenodd" /><path
       style="fill:#ce232b;fill-opacity:1;fill-rule:evenodd"
       inkscape:connector-curvature="0"
       id="path12"
       d="m 227.69,10.108 c -7.261,0.568 -15.095,1.196 -22.933,1.77 -0.824,0.06 -1.672,-0.204 -2.509,-0.318 0.474,-0.605 0.82,-1.465 1.441,-1.779 9.274,-4.693 18.981,-7.458 29.5,-6.184 1.113,0.135 2.51,0.504 3.169,1.28 1.243,1.463 2.046,3.302 3.03,4.985 -1.387,0.209 -2.771,0.581 -4.159,0.591 -2.315,0.017 -4.633,-0.198 -7.539,-0.345 z"
       clip-rule="evenodd" /><path
       style="fill:#ce232b;fill-opacity:1;fill-rule:evenodd"
       inkscape:connector-curvature="0"
       id="path14"
       d="m 219.052,18.555 c -4.563,0 -9.126,0.034 -13.688,-0.039 -0.639,-0.01 -1.269,-0.545 -1.903,-0.838 0.523,-0.324 1.019,-0.875 1.572,-0.938 7.913,-0.917 15.828,-1.826 23.76,-2.553 0.861,-0.079 1.828,0.979 2.745,1.51 -0.718,0.631 -1.357,1.669 -2.165,1.821 -3.395,0.639 -6.839,1.014 -10.266,1.485 -0.019,-0.15 -0.038,-0.299 -0.055,-0.448 z"
       clip-rule="evenodd" /><path
       style="fill:#ce232b;fill-opacity:1;fill-rule:evenodd"
       inkscape:connector-curvature="0"
       id="path16"
       d="m 68.494,74.75 c -1.028,-1.569 -2.398,-2.845 -2.741,-4.354 -0.682,-3.004 3.461,-6.251 6.758,-6.35 1.165,-0.035 2.232,-2.143 3.417,-3.224 0.455,-0.416 1.111,-0.61 1.676,-0.905 -0.091,0.664 0.009,1.439 -0.305,1.972 -2.219,3.769 -4.49,7.508 -6.828,11.203 -0.407,0.641 -1.21,1.031 -1.977,1.658 z"
       clip-rule="evenodd" /><path
       style="fill:#ce232b;fill-opacity:1;fill-rule:evenodd"
       inkscape:connector-curvature="0"
       id="path18"
       d="m 207.717,21.29 c 0.989,0.111 1.978,0.215 2.965,0.335 0.326,0.04 0.647,0.118 0.97,0.179 -0.377,0.16 -0.741,0.397 -1.134,0.469 -3.409,0.627 -6.86,1.068 -10.228,1.865 -6.592,1.559 -13.135,3.33 -19.712,4.953 -0.568,0.14 -1.244,-0.161 -1.87,-0.257 0.333,-0.44 0.592,-1.167 1.012,-1.277 9.245,-2.427 18.507,-4.785 27.767,-7.156 0.077,0.297 0.154,0.593 0.23,0.889 z"
       clip-rule="evenodd" /><path
       style="fill:#ce232b;fill-opacity:1;fill-rule:evenodd"
       inkscape:connector-curvature="0"
       id="path20"
       d="m 281.976,342.382 c -2.033,1.381 -3.561,3.089 -5.152,5.019 -3.045,3.69 -8.25,5.641 -12.687,8.081 -0.47,0.259 -1.792,-1.029 -2.719,-1.6 0.812,-0.213 1.616,-0.452 2.435,-0.631 0.768,-0.167 2.101,-0.062 2.24,-0.432 1.617,-4.293 7.02,-3.898 9.199,-7.643 1.005,-1.727 3.153,-2.818 4.895,-4.04 0.171,-0.12 1.121,0.871 1.711,1.346 0,0 0.078,-0.1 0.078,-0.1 z"
       clip-rule="evenodd" /><path
       style="fill:#ce232b;fill-opacity:1;fill-rule:evenodd"
       inkscape:connector-curvature="0"
       id="path22"
       d="m 182.66,14.202 c 0.617,0.138 1.234,0.277 1.851,0.416 -0.434,0.328 -0.819,0.805 -1.308,0.961 -6.433,2.065 -12.879,4.09 -19.328,6.105 -0.43,0.134 -0.912,0.103 -1.37,0.149 0.356,-0.412 0.631,-1.024 1.081,-1.206 6.185,-2.503 12.395,-4.946 18.598,-7.405 0.159,0.326 0.317,0.653 0.476,0.98 z"
       clip-rule="evenodd" /><path
       style="fill:#ce232b;fill-opacity:1;fill-rule:evenodd"
       inkscape:connector-curvature="0"
       id="path24"
       d="m 330.597,150.843 c 0.95,1.208 1.51,1.657 1.724,2.233 1.67,4.491 3.327,8.989 4.84,13.534 0.233,0.699 -0.294,1.652 -0.47,2.487 -0.472,-0.583 -1.127,-1.095 -1.385,-1.76 -1.735,-4.48 -3.427,-8.979 -5.021,-13.51 -0.23,-0.653 0.138,-1.517 0.312,-2.984 z"
       clip-rule="evenodd" /><path
       style="fill:#ce232b;fill-opacity:1;fill-rule:evenodd"
       inkscape:connector-curvature="0"
       id="path26"
       d="m 114.249,60.572 c -0.843,0.54 -1.74,1.011 -2.521,1.63 -3.162,2.508 -6.263,5.093 -9.451,7.566 -0.519,0.403 -1.364,0.386 -2.058,0.563 0.185,-0.576 0.193,-1.351 0.582,-1.696 3.459,-3.073 6.948,-6.116 10.536,-9.036 0.483,-0.393 1.562,-0.054 2.365,-0.054 0.182,0.343 0.364,0.684 0.547,1.027 z"
       clip-rule="evenodd" /><path
       style="fill:#ce232b;fill-opacity:1;fill-rule:evenodd"
       inkscape:connector-curvature="0"
       id="path28"
       d="m 193.679,10.779 c 1.291,0.891 2.102,1.451 2.914,2.011 -2.441,0.899 -4.848,1.917 -7.347,2.607 -0.578,0.16 -1.466,-0.805 -2.211,-1.253 2.154,-1.09 4.308,-2.181 6.644,-3.365 z"
       clip-rule="evenodd" /><path
       style="fill:#ce232b;fill-opacity:1;fill-rule:evenodd"
       inkscape:connector-curvature="0"
       id="path30"
       d="m 242.63,387.153 c 1.508,0.312 2.272,0.472 3.037,0.63 -0.635,0.444 -1.26,0.906 -1.91,1.326 -0.416,0.269 -0.849,0.549 -1.314,0.699 -3.256,1.057 -6.523,2.08 -9.787,3.115 0.025,-0.266 -0.039,-0.706 0.089,-0.771 3.45,-1.775 6.92,-3.51 9.885,-4.999 z"
       clip-rule="evenodd" /><path
       style="fill:#ce232b;fill-opacity:1;fill-rule:evenodd"
       inkscape:connector-curvature="0"
       id="path32"
       d="m 56.967,104.813 c -0.093,-0.708 -0.371,-1.309 -0.179,-1.602 1.981,-3.026 4.019,-6.016 6.103,-8.973 0.222,-0.315 0.833,-0.355 1.265,-0.522 0.062,0.43 0.332,0.999 0.152,1.27 -1.992,3.008 -4.047,5.976 -6.109,8.938 -0.176,0.251 -0.521,0.385 -1.232,0.889 z"
       clip-rule="evenodd" /><path
       style="fill:#ce232b;fill-opacity:1;fill-rule:evenodd"
       inkscape:connector-curvature="0"
       id="path34"
       d="m 80.161,91.667 c -0.203,-1.579 -0.547,-2.355 -0.303,-2.661 2.044,-2.556 4.163,-5.057 6.352,-7.49 0.341,-0.379 1.151,-0.367 1.755,-0.445 0.078,-0.01 0.409,0.678 0.315,0.792 -2.455,3.017 -4.951,6 -8.119,9.804 z"
       clip-rule="evenodd" /><path
       style="fill:#ce232b;fill-opacity:1;fill-rule:evenodd"
       inkscape:connector-curvature="0"
       id="path36"
       d="m 218.643,3.29 c -1.843,-0.564 -2.974,-0.91 -4.104,-1.256 1.15,-0.693 2.25,-1.844 3.462,-1.977 1.964,-0.214 4.001,0.239 6.008,0.41 -1.859,0.977 -3.716,1.954 -5.366,2.823 z"
       clip-rule="evenodd" /></g></svg>